<?xml version="1.0" encoding="UTF-8"?>
<svg version="1.1" xmlns="http://www.w3.org/2000/svg" width="512" height="512">
<path d="M0 0 C0.82468497 0.30825368 1.64936995 0.61650736 2.49904537 0.93410206 C5.14797503 1.94431429 7.77534199 2.99918746 10.40209961 4.06567383 C11.39097168 4.46302734 12.37984375 4.86038086 13.39868164 5.26977539 C16.6515861 6.57805546 19.90195118 7.89252433 23.15234375 9.20703125 C25.45301136 10.13367125 27.75384156 11.05990767 30.05482483 11.98576355 C36.12067033 14.42769201 42.18440854 16.87481023 48.24768066 19.32312012 C55.47893679 22.2419859 62.71228265 25.1556721 69.94630432 28.06767654 C75.79376588 30.42205068 81.63900822 32.78162347 87.47949219 35.15325928 C97.65130757 39.27816644 107.82892226 43.34974384 118.11914062 47.17089844 C120.56268071 48.09243022 123.0053216 49.01630431 125.44769478 49.94092369 C127.636573 50.75601008 129.83673854 51.53147243 132.04026794 52.30586243 C141.01554686 55.61373291 141.01554686 55.61373291 143.68005371 59.36578369 C145.6424331 64.20550911 145.80534488 68.36882934 145.20117188 73.50537109 C144.97334362 76.33055199 145.17268509 78.94522958 145.4453125 81.765625 C151.51926035 145.69924967 129.33490234 210.39878145 88.921875 259.74609375 C86.1001293 263.05533617 83.20773991 266.29420003 80.2734375 269.50390625 C78.78180459 271.14162692 77.30709219 272.79495423 75.8515625 274.46484375 C56.82835154 296.20075085 32.42129328 312.64314453 7 326 C5.92975586 326.56871826 5.92975586 326.56871826 4.83789062 327.14892578 C2.82058101 328.20862208 0.79023016 329.23526203 -1.25 330.25 C-2.41015625 330.83265625 -3.5703125 331.4153125 -4.765625 332.015625 C-8.79234318 333.24114792 -10.20481778 332.71848174 -14 331 C-15.81757813 330.22849609 -15.81757813 330.22849609 -17.671875 329.44140625 C-40.52614175 319.06026048 -61.39745357 304.80416046 -80 288 C-80.91555664 287.17701416 -80.91555664 287.17701416 -81.84960938 286.33740234 C-88.64090183 280.20940452 -95.17078902 274.06531599 -101 267 C-101.804375 266.08347656 -102.60875 265.16695313 -103.4375 264.22265625 C-116.36526782 249.45073907 -126.76883131 233.29887863 -136 216 C-136.44085938 215.17580566 -136.88171875 214.35161133 -137.3359375 213.50244141 C-151.30657238 186.9317756 -160.02922547 156.84592088 -163 127 C-163.11085938 125.9275 -163.22171875 124.855 -163.3359375 123.75 C-164.83215118 106.60419994 -164.78292874 88.85401213 -162.2791748 71.80253601 C-161.90725446 69.00325294 -161.90725446 69.00325294 -162.27729797 66.21699524 C-162.36134651 62.36968784 -161.92708449 60.36960177 -160 57 C-153.57772235 52.19019065 -145.34390813 49.81075575 -137.91015625 47.01953125 C-135.61539315 46.11756739 -133.32232144 45.21128971 -131.03086853 44.3009491 C-124.95932318 41.90220052 -118.8667636 39.56213604 -112.76794434 37.23376465 C-106.73763538 34.92077216 -100.72794993 32.5555874 -94.71679688 30.19335938 C-87.64562352 27.41815098 -80.5711736 24.65280029 -73.47964478 21.92996216 C-62.35033032 17.65649112 -51.26162077 13.32120758 -40.25341797 8.74365234 C-37.30546045 7.53005965 -34.35680908 6.3181655 -31.40807915 5.10645103 C-29.57447996 4.34509068 -27.74526501 3.57306953 -25.92100716 2.78959084 C-23.42822301 1.71914238 -20.92278873 0.6859497 -18.41186523 -0.34106445 C-17.70107504 -0.65907579 -16.99028484 -0.97708714 -16.25795555 -1.30473518 C-10.14837127 -3.7349594 -5.96242813 -2.34470773 0 0 Z " fill="#FE9B00" transform="translate(265,91)"/>
<path d="M0 0 C22.19283728 9.09899903 44.41909727 18.1064599 66.70947266 26.96411133 C67.88059286 27.42953968 69.05171307 27.89496803 70.25832176 28.37450027 C79.80057893 32.16581849 89.34499546 35.95168853 98.88970947 39.73681641 C106.13186562 42.60899091 113.37318034 45.48326674 120.6133213 48.3605175 C123.94838532 49.6848894 127.28466996 51.00615127 130.62101746 52.32728577 C132.64495123 53.13127827 134.66882451 53.93542306 136.69262695 54.73974609 C137.60395386 55.09962112 138.51528076 55.45949615 139.45422363 55.83027649 C152.82661457 61.15653745 152.82661457 61.15653745 155.51025391 64.71020508 C156.1862793 66.70874023 156.1862793 66.70874023 156.60791016 68.99926758 C156.76864014 69.84972656 156.92937012 70.70018555 157.0949707 71.57641602 C157.25263916 72.48681641 157.41030762 73.3972168 157.57275391 74.33520508 C157.82762573 75.74721191 157.82762573 75.74721191 158.08764648 77.18774414 C172.68029979 160.10596041 151.70127398 246.52146772 103.67041016 315.30151367 C95.9760625 326.13321315 87.80783805 336.53553702 78.76416016 346.27270508 C76.8538261 348.33864694 75.01695421 350.43971087 73.19775391 352.58520508 C65.67225895 361.2341744 57.33965315 369.40208746 48.51025391 376.71020508 C47.98689453 377.15267578 47.46353516 377.59514648 46.92431641 378.05102539 C25.81786109 395.8739983 2.49355497 410.91148524 -22.48974609 422.71020508 C-23.5102002 423.19577881 -23.5102002 423.19577881 -24.55126953 423.69116211 C-28.84806406 425.73299405 -33.15244702 427.75551488 -37.48974609 429.71020508 C-38.33150391 430.1046582 -39.17326172 430.49911133 -40.04052734 430.90551758 C-46.84981244 433.14269896 -51.73974045 430.60998037 -57.86474609 427.71020508 C-58.74815674 427.30084717 -59.63156738 426.89148926 -60.54174805 426.46972656 C-63.19824617 425.23111247 -65.84514837 423.97399962 -68.48974609 422.71020508 C-69.2214502 422.3636084 -69.9531543 422.01701172 -70.70703125 421.65991211 C-109.1979222 403.33484126 -146.14114597 375.5930013 -173.48974609 342.71020508 C-173.94043457 342.17331055 -174.39112305 341.63641602 -174.85546875 341.08325195 C-221.47133914 285.40028956 -251.78903127 214.91488641 -253.48974609 141.71020508 C-253.51020996 140.92935547 -253.53067383 140.14850586 -253.55175781 139.34399414 C-255.0398809 74.77666988 -255.0398809 74.77666988 -244.16248894 62.17221165 C-242.3529309 60.5906262 -240.83019846 59.82729481 -238.6008606 58.94578552 C-237.81102909 58.62906041 -237.02119759 58.3123353 -236.20743179 57.98601246 C-235.34169415 57.64805999 -234.4759565 57.31010752 -233.58398438 56.96191406 C-232.66505276 56.59603778 -231.74612114 56.2301615 -230.79934311 55.85319805 C-227.72243885 54.63022274 -224.64127102 53.41837466 -221.56005859 52.20629883 C-219.37285313 51.33916939 -217.18593901 50.47130476 -214.9992981 49.60275269 C-209.0991923 47.26132903 -203.1954403 44.92923742 -197.29084778 42.59915543 C-188.07287815 38.95958656 -178.86015942 35.30672407 -169.64657545 31.65607053 C-166.52522607 30.41935241 -163.4037146 29.1830464 -160.28186035 27.94760323 C-144.07645679 21.53436185 -127.89172323 15.07249068 -111.73734665 8.53163719 C-108.72705516 7.3131418 -105.71603887 6.09645688 -102.70474243 4.88044739 C-100.76702862 4.09787035 -98.82931499 3.31529284 -96.89160156 2.53271484 C-95.95511339 2.15454022 -95.01862522 1.7763656 -94.05375862 1.38673115 C-88.5573886 -0.83421725 -83.06590902 -3.06678111 -77.57745934 -5.30722427 C-74.19829767 -6.68328694 -70.81465304 -8.0480347 -67.42965317 -9.40966415 C-65.88094483 -10.03546662 -64.33417993 -10.66610503 -62.78961563 -11.3020668 C-60.69360733 -12.16456091 -58.59137921 -13.00971366 -56.48681641 -13.85107422 C-55.32031555 -14.32538376 -54.1538147 -14.7996933 -52.95196533 -15.28837585 C-36.83928786 -19.94883822 -14.80814408 -6.07204451 0 0 Z M-59.42675781 28.34008789 C-60.39124344 28.72736557 -61.35572906 29.11464325 -62.34944153 29.51365662 C-65.54487784 30.80052144 -68.73196486 32.1068687 -71.91943359 33.41333008 C-74.1866847 34.33072466 -76.4544466 35.24685778 -78.72268677 36.1618042 C-84.72869778 38.58825231 -90.72791292 41.03107592 -96.72576904 43.4776001 C-102.63037622 45.88327617 -108.54059275 48.27507096 -114.45068359 50.66723633 C-121.46186864 53.505572 -128.47227452 56.34573962 -135.47845459 59.19641113 C-147.31486601 64.01022296 -159.16463497 68.78612955 -171.04541016 73.48950195 C-172.21357584 73.95284313 -173.38174152 74.41618431 -174.58530617 74.89356613 C-180.15430144 77.10239534 -185.72588772 79.30410597 -191.302948 81.49249268 C-193.27957974 82.27532091 -195.25607884 83.05848418 -197.23242188 83.84204102 C-198.58223082 84.36660007 -198.58223082 84.36660007 -199.95930862 84.90175629 C-200.78123074 85.22943245 -201.60315285 85.55710861 -202.44998169 85.89471436 C-203.16227999 86.17473171 -203.87457829 86.45474907 -204.60846138 86.7432518 C-206.70022261 87.81838698 -207.98681257 88.90627636 -209.48974609 90.71020508 C-227.42635266 148.42621911 -210.7004688 216.63009488 -184.11474609 268.65307617 C-177.35465358 281.37090647 -169.47519646 293.45691637 -160.48974609 304.71020508 C-159.82587891 305.56485352 -159.16201172 306.41950195 -158.47802734 307.30004883 C-153.7370734 313.34499797 -148.66950616 319.04081595 -143.48974609 324.71020508 C-142.24644531 326.11012695 -142.24644531 326.11012695 -140.97802734 327.53833008 C-136.08966159 333.01809078 -131.12596928 338.01500334 -125.48974609 342.71020508 C-124.1265625 343.90516602 -124.1265625 343.90516602 -122.73583984 345.12426758 C-102.20253886 363.05916786 -79.32478946 376.62629871 -54.50537109 387.79711914 C-52.93103268 388.51030054 -51.37755217 389.2695732 -49.83349609 390.04614258 C-44.31423446 391.60993337 -39.09182621 389.34112828 -34.13037109 386.97192383 C-32.9410498 386.40489746 -31.75172852 385.83787109 -30.52636719 385.25366211 C-29.26356647 384.63622251 -28.00137064 384.01754443 -26.73974609 383.39770508 C-26.09757141 383.08540955 -25.45539673 382.77311401 -24.79376221 382.45135498 C-13.52080979 376.95499714 -2.81569265 370.84879902 7.51025391 363.71020508 C8.58146484 362.9702832 9.65267578 362.23036133 10.75634766 361.46801758 C13.38197427 359.59621165 15.95597542 357.67791473 18.51025391 355.71020508 C19.32236328 355.09016602 20.13447266 354.47012695 20.97119141 353.83129883 C26.32124371 349.65420752 31.35915436 345.20020013 36.31274414 340.56640625 C38.53507529 338.49144955 40.76831823 336.50626946 43.15478516 334.62036133 C45.35076693 332.83954028 47.07826274 331.06168718 48.88525391 328.89770508 C51.07913947 326.32247889 53.30233882 323.90787604 55.76025391 321.58520508 C61.26730127 316.13948341 65.86914643 309.89070492 70.51025391 303.71020508 C70.996875 303.0626123 71.48349609 302.41501953 71.98486328 301.74780273 C103.25572843 259.72628678 123.15032094 207.33369826 124.51025391 154.71020508 C124.53071777 153.96738281 124.55118164 153.22456055 124.57226562 152.45922852 C124.97985856 135.38074764 123.71212642 118.52263849 121.07275391 101.64770508 C120.90779419 100.55002808 120.90779419 100.55002808 120.73950195 99.43017578 C120.03102664 95.24893714 119.2646606 91.9736397 116.51025391 88.71020508 C110.63437162 85.5352091 104.56139568 83.02705126 98.35449219 80.57861328 C97.36740265 80.18593262 96.38031311 79.79325195 95.36331177 79.38867188 C92.10368595 78.09283728 88.84212055 76.80195881 85.58056641 75.51098633 C83.27109206 74.59370572 80.9617584 73.67607085 78.65255737 72.75810242 C73.17187831 70.58018755 67.69003722 68.40522115 62.20753944 66.23188895 C51.96933542 62.17325262 41.73358016 58.10845366 31.4983139 54.04241562 C27.96531199 52.63985521 24.43135613 51.23971994 20.89727783 49.83987427 C9.87465756 45.46898749 -1.12754686 41.05747845 -12.08447266 36.52416992 C-14.04074479 35.71818748 -15.99705279 34.91229211 -17.95339966 34.10649109 C-21.5454861 32.62627134 -25.12940428 31.12830476 -28.70944214 29.61921692 C-30.30406957 28.96032954 -31.89895333 28.30206202 -33.49414062 27.64453125 C-34.19317127 27.34358992 -34.89220192 27.04264858 -35.61241531 26.73258781 C-44.47946117 23.12299191 -50.89689372 24.80041573 -59.42675781 28.34008789 Z " fill="#FE9B00" transform="translate(301.48974609375,48.289794921875)"/>
</svg>
